<svg width="512" height="299" viewBox="0 0 512 299" fill="none" xmlns="http://www.w3.org/2000/svg">
  <path d="M512 0H0V298.7H512V0Z" fill="#D00027" />
  <path d="M149.3 74.6C190.5 74.6 224 108 224 149.3C224 190.5 190.6 224 149.3 224C108.1 224 74.6 190.6 74.6 149.3C74.7 108.1 108.1 74.6 149.3 74.6Z" fill="white" />
  <path d="M168 89.6C201 89.6 227.7 116.4 227.7 149.3C227.7 182.3 201 209 168 209C135 209 108.3 182.2 108.3 149.3C108.3 116.3 135 89.6 168 89.6Z" fill="#D00027" />
  <path d="M212.4 149.3L247.9 160.8L253.7 143.1L212.4 149.3Z" fill="white" />
  <path d="M212.4 149.3L247.9 137.8L253.7 155.5L212.4 149.3Z" fill="white" />
  <path d="M238.2 113.8V151.1H256.9L238.2 113.8Z" fill="white" />
  <path d="M238.2 113.8L260.2 144L245.1 155L238.2 113.8Z" fill="white" />
  <path d="M238.2 184.8L260.2 154.6L245.1 143.6L238.2 184.8Z" fill="white" />
  <path d="M238.2 184.8V147.5H256.9L238.2 184.8Z" fill="white" />
  <path d="M280 127.4L244.5 138.9L250.2 156.6L280 127.4Z" fill="white" />
  <path d="M280 127.4L258 157.6L242.9 146.6L280 127.4Z" fill="white" />
  <path d="M280 171.2L258 141L242.9 152L280 171.2Z" fill="white" />
  <path d="M280 171.2L244.5 159.7L250.2 142L280 171.2Z" fill="white" />
</svg>